<svg xmlns="http://www.w3.org/2000/svg" width="150" height="156" viewBox="0 0 150 156" role="img" aria-label="Z ERP logo">
  <defs>
    <linearGradient id="bg" x1="18" y1="10" x2="132" y2="145" gradientUnits="userSpaceOnUse">
      <stop offset="0" stop-color="#1263ff"/>
      <stop offset="0.52" stop-color="#0757f2"/>
      <stop offset="1" stop-color="#003dbd"/>
    </linearGradient>
    <linearGradient id="white" x1="25" y1="25" x2="121" y2="126" gradientUnits="userSpaceOnUse">
      <stop offset="0" stop-color="#ffffff"/>
      <stop offset="0.56" stop-color="#f9fbff"/>
      <stop offset="1" stop-color="#eef3fb"/>
    </linearGradient>
    <linearGradient id="fold" x1="18" y1="96" x2="78" y2="132" gradientUnits="userSpaceOnUse">
      <stop offset="0" stop-color="#ffffff"/>
      <stop offset="0.55" stop-color="#eef3fb"/>
      <stop offset="1" stop-color="#cfd9ee"/>
    </linearGradient>
    <linearGradient id="facet" x1="41" y1="114" x2="91" y2="132" gradientUnits="userSpaceOnUse">
      <stop offset="0" stop-color="#eef3fb"/>
      <stop offset="1" stop-color="#b7c5df"/>
    </linearGradient>
    <filter id="shadow" x="-15%" y="-15%" width="130%" height="130%">
      <feDropShadow dx="0" dy="4" stdDeviation="4" flood-color="#022977" flood-opacity="0.28"/>
    </filter>
    <filter id="soft" x="-15%" y="-15%" width="130%" height="130%">
      <feDropShadow dx="0" dy="10" stdDeviation="9" flood-color="#0b3db7" flood-opacity="0.18"/>
    </filter>
  </defs>
  <rect x="0" y="0" width="150" height="156" rx="28" fill="url(#bg)" filter="url(#soft)"/>
  <g filter="url(#shadow)">
    <polygon points="38,31 124,31 108,49 21,49" fill="url(#white)"/>
    <polygon points="61,49 103,49 43,114 22,114" fill="url(#white)"/>
    <polygon points="22,114 72,114 85,132 22,132" fill="url(#fold)"/>
    <polygon points="86,132 121,132 132,113 98,113" fill="url(#white)"/>
    <polygon points="72,114 98,113 86,132" fill="url(#facet)" opacity="0.95"/>
    <polygon points="21,49 38,31 62,49" fill="#f3f6fb" opacity="0.88"/>
    <polygon points="61,49 108,49 86,72 45,72" fill="#082f9f" opacity="0.18"/>
    <polygon points="43,114 72,114 84,131 50,131" fill="#c4d0e8" opacity="0.38"/>
  </g>
  <rect x="0.5" y="0.5" width="149" height="155" rx="27.5" fill="none" stroke="#ffffff" stroke-opacity="0.22"/>
</svg>